<?xml version="1.0" encoding="utf-8"?>
<svg id="icon" viewBox="0 0 32 32" xmlns="http://www.w3.org/2000/svg">
  <defs>
    <style>.cls-1{fill-rule:evenodd;}.cls-2{fill:none;}</style>
  </defs>
  <title>logo--github</title>
  <path class="cls-1" d="M 15.978 0.024 C 3.692 0.025 -3.984 13.678 2.16 24.599 C 4.11 28.065 7.229 30.677 10.928 31.945 C 11.726 32.097 12.067 31.594 12.067 31.161 C 12.067 30.727 12.067 29.746 12.067 28.376 C 7.633 29.359 6.699 26.176 6.699 26.176 C 6.387 25.173 5.731 24.32 4.851 23.777 C 3.404 22.77 4.965 22.783 4.965 22.783 C 5.991 22.931 6.892 23.558 7.406 24.479 C 8.325 26.173 10.407 26.78 12.056 25.837 C 12.12 25.007 12.477 24.229 13.059 23.649 C 9.526 23.228 5.798 21.824 5.798 15.552 C 5.773 13.922 6.361 12.347 7.44 11.152 C 6.951 9.74 7.009 8.191 7.599 6.822 C 7.599 6.822 8.933 6.376 11.988 8.495 C 14.599 7.763 17.356 7.763 19.967 8.495 C 23.011 6.376 24.344 6.822 24.344 6.822 C 24.934 8.191 24.992 9.74 24.504 11.152 C 25.582 12.347 26.171 13.922 26.145 15.552 C 26.145 21.846 22.417 23.228 18.862 23.637 C 19.632 24.438 20.027 25.544 19.944 26.667 C 19.944 28.856 19.944 30.623 19.944 31.161 C 19.944 31.7 20.229 32.109 21.084 31.945 C 32.738 27.954 35.811 12.509 26.617 4.144 C 23.683 1.476 19.897 0.01 15.978 0.024 Z" fill="#007CED" style=""/>
  <rect id="_Transparent_Rectangle_" data-name="&lt;Transparent Rectangle&gt;" class="cls-2" width="32" height="32"/>
</svg>