<?xml version="1.0" encoding="utf-8"?>
<svg version="1.1" id="icon" x="0px" y="0px" width="32px" height="32px" viewBox="0 0 32 32" style="enable-background:new 0 0 32 32;" xmlns="http://www.w3.org/2000/svg">
  <style type="text/css">
	.st0{fill:none;}
</style>
  <path d="M 29.579 -0.008 L 2.391 -0.008 C 1.059 -0.008 -0.007 1.063 -0.006 2.268 L 0.016 29.71 C 0.017 30.915 1.085 31.986 2.417 31.986 L 29.606 31.986 C 30.939 31.986 32.004 30.915 32.003 29.71 L 31.98 2.268 C 31.979 1.063 30.912 -0.008 29.579 -0.008 Z M 9.478 27.301 L 4.812 27.301 L 4.8 12.04 L 9.466 12.04 L 9.478 27.301 Z M 7.197 9.899 C 5.732 9.899 4.397 8.693 4.396 7.088 C 4.394 5.48 5.592 4.277 7.191 4.277 C 8.657 4.277 9.991 5.48 9.993 7.088 C 9.995 8.693 8.663 9.899 7.197 9.899 Z M 27.336 27.167 L 22.672 27.167 L 22.666 19.67 C 22.665 17.93 22.663 15.522 20.129 15.522 C 17.598 15.522 17.332 17.529 17.334 19.403 L 17.34 27.034 L 12.677 27.034 L 12.664 12.04 L 17.061 12.04 L 17.063 14.048 L 17.196 14.048 C 17.86 12.843 19.459 11.505 21.725 11.505 C 26.523 11.505 27.459 14.718 27.462 18.868 L 27.47 27.167 L 27.336 27.167 Z" fill="#007CED" style="" transform="matrix(1, 0.000835, -0.000835, 1, 0.013356, -0.013353)"/>
  <rect id="_x3C_Transparent_Rectangle_x3E_" y="0" class="st0" width="32" height="32"/>
</svg>